<?xml version="1.0" encoding="utf-8"?>
<!-- Generator: Adobe Illustrator 26.5.1, SVG Export Plug-In . SVG Version: 6.00 Build 0)  -->
<svg version="1.1" id="MElogo" xmlns="http://www.w3.org/2000/svg" xmlns:xlink="http://www.w3.org/1999/xlink" x="0px" y="0px"
	 viewBox="0 0 612 792" style="enable-background:new 0 0 612 792;" xml:space="preserve">
<style type="text/css">
	.st0{display:none;fill:#EA722F;}
	.st1{display:none;}
	.st2{display:inline;fill:#EA722F;}
	.st3{fill:#231F20;}
	.st4{fill:none;stroke:#231F20;stroke-width:3;stroke-miterlimit:10;}
</style>
<path id="Center_00000172419219758197412040000009412226358415662225_" class="st0" d="M138.3,189.1c-0.5,0-0.9,0-1.8,0.1
	c-0.9,0.1-1.5,0.2-1.7,0.2c-1.6,0.3-2.9,1-3.9,1.4c-1,0.5-2.6,1-4.7,1.4c-0.7,0.1-2.4,0.2-4.1-0.3c-0.4-0.1-1.1-0.2-1.8-0.7
	c-0.4-0.3-0.8-0.5-1.1-0.8c-1.1,1.9-1.8,4.2-1.8,6.6c0,2.4,0.6,4.6,1.7,6.5c0.8-0.2,1.6-0.4,2.3-0.6c0.1,0,1.3-0.2,2.6-0.1
	c3.6,0.1,4.6,2,8,2c2.4,0,3.5-0.9,4.8,0c0.6,0.4,1.1,1,2.1,1.2c0.7,0.1,1.4-0.1,1.8-0.3c0.9-1,2.2-2.8,2.8-5.3
	c0.4-1.7,0.4-3,0.4-3.4c0-2.5-0.9-4.2-1.5-5.5c-0.6-1.2-1-1.6-1.4-1.9C140.3,189.1,139.3,189.1,138.3,189.1z"/>
<g id="Top-Bottom" class="st1">
	<path class="st2" d="M130.8,189.3c3-0.8,3.6-1.6,6-1.7c1.5-0.1,2.7,0.2,3.6,0.4c-2.4-2.6-5.9-4.2-9.7-4.2c-4.5,0-8.5,2.3-10.9,5.7
		c0.2,0.1,0.4,0.1,0.8,0.2C121.5,189.9,125.3,190.8,130.8,189.3z"/>
	<path class="st2" d="M137.5,207c-1,0.1-2.6,0.3-4.6,0.1c-1.2-0.1-3-0.5-5.1-1.4c-1-0.5-2.5-1.2-4.4-1.5c-1.6-0.3-3-0.2-4-0.1
		c2.4,3.7,6.5,6.1,11.2,6.1c3.5,0,6.8-1.4,9.1-3.7C139.3,206.8,138.5,206.9,137.5,207z"/>
</g>
<g>
	<g id="ME">
		<path class="st3" d="M129.9,208.2l2.1,8l0.9,3.5l0.8,3.2l0.1,0.4h-5.8l-1.8-7.6l-3.9,6.7l-4-6.3c-0.4,1.5-0.8,3.4-1.3,5.7
			c-0.2,0.9-0.3,1.4-0.4,1.5c-0.1,0.2-0.2,0.2-0.4,0.2c-0.3,0-0.4-0.1-0.4-0.3c0-0.1,0.1-0.4,0.3-1.1l0.6-2.3l1-4l2-7.7l5.2,8.5
			L129.9,208.2z"/>
		<path class="st3" d="M141,213.4c0,0.3,0,0.7,0,1.2v0.6l0.1,7.4l3.2,0l2.3,0c0.4,0,0.6,0.1,0.6,0.4c0,0.2-0.1,0.3-0.3,0.4
			c0,0-0.3,0-0.8,0h-10.8l0-0.6l0-3.6l0-3.8l-0.1-6.7h10.1c0.5,0,0.7,0,0.8,0c0.1,0,0.2,0.2,0.2,0.4c0,0.2-0.1,0.4-0.4,0.4h-0.1
			l-4.8-0.1l0,3.3l1,0l3.3-0.1l0.7,0c0.3,0,0.4,0,0.5,0.1c0.1,0.1,0.1,0.2,0.1,0.3c0,0.3-0.2,0.4-0.6,0.4l-0.8,0L141,213.4z"/>
	</g>
	<g>
		<path class="st4" d="M113.4,228.9c0,2.8,2.2,5,5,5h26c2.8,0,5-2.2,5-5v-26c0-2.8-2.2-5-5-5h-26c-2.8,0-5,2.2-5,5V228.9z"/>
	</g>
</g>
</svg>
